# xmcd CD database file
#
# Track frame offsets:
#	150
#	10691
#	22106
#	36473
#	49238
#	59888
#	69650
#	82161
#	93022
#	103035
#	115959
#	126782
#	138706
#	148462
#	159030
#	170332
#	180440
#	191116
#	202992
#	215987
#	227273
#	239183
#
# Disc length: 3344 seconds
#
# Revision: 0
# Processed by: cddbd v1.5.1PL0 Copyright (c) Steve Scherf et al.
# Submitted via: CDex 1.51
#
DISCID=4e0d0e16
DTITLE=Jim Reeves - The Ultimate Collection Disc1
DYEAR=1900
DGENRE=Country
TTITLE0=He'll Have To Go
TTITLE1=Adios Amigo
TTITLE2=Guilty
TTITLE3=Four Walls
TTITLE4=Don't Let Me Cross Over
TTITLE5=It Hurts So Much
TTITLE6=Not Until The Next Time
TTITLE7=Someday
TTITLE8=A Fool Such As I
TTITLE9=Distant Drums
TTITLE10=Welcome To My World
TTITLE11=Am I Losing You
TTITLE12=Oh How I Miss You tonight
TTITLE13=Two Shadows On Your Window
TTITLE14=Anna Marie
TTITLE15=Is It Really Over
TTITLE16=Am I That Easy To Forget
TTITLE17=Missing You
TTITLE18=I'd Fight The world
TTITLE19=According To My Heart
TTITLE20=Mexican Joe
TTITLE21=Yonder Comes A Sucker
EXTD=
EXTT0=
EXTT1=
EXTT2=
EXTT3=
EXTT4=
EXTT5=
EXTT6=
EXTT7=
EXTT8=
EXTT9=
EXTT10=
EXTT11=
EXTT12=
EXTT13=
EXTT14=
EXTT15=
EXTT16=
EXTT17=
EXTT18=
EXTT19=
EXTT20=
EXTT21=
PLAYORDER=
